<?xml version="1.0" standalone="no"?>
<svg xmlns:xlink="http://www.w3.org/1999/xlink" id="wave" style="transform:rotate(180deg); transition: 0.3s" viewBox="0 0 1440 490" version="1.1" xmlns="http://www.w3.org/2000/svg"><defs><linearGradient id="sw-gradient-0" x1="0" x2="0" y1="1" y2="0"><stop stop-color="rgba(30, 27, 75, 1)" offset="0%"/><stop stop-color="rgba(30, 27, 75, 1)" offset="100%"/></linearGradient></defs><path style="transform:translate(0, 0px); opacity:1" fill="url(#sw-gradient-0)" d="M0,441L80,375.7C160,310,320,180,480,130.7C640,82,800,114,960,179.7C1120,245,1280,343,1440,326.7C1600,310,1760,180,1920,114.3C2080,49,2240,49,2400,98C2560,147,2720,245,2880,294C3040,343,3200,343,3360,285.8C3520,229,3680,114,3840,106.2C4000,98,4160,196,4320,220.5C4480,245,4640,196,4800,212.3C4960,229,5120,310,5280,334.8C5440,359,5600,327,5760,294C5920,261,6080,229,6240,253.2C6400,278,6560,359,6720,359.3C6880,359,7040,278,7200,204.2C7360,131,7520,65,7680,106.2C7840,147,8000,294,8160,294C8320,294,8480,147,8640,138.8C8800,131,8960,261,9120,302.2C9280,343,9440,294,9600,302.2C9760,310,9920,376,10080,367.5C10240,359,10400,278,10560,253.2C10720,229,10880,261,11040,302.2C11200,343,11360,392,11440,416.5L11520,441L11520,490L11440,490C11360,490,11200,490,11040,490C10880,490,10720,490,10560,490C10400,490,10240,490,10080,490C9920,490,9760,490,9600,490C9440,490,9280,490,9120,490C8960,490,8800,490,8640,490C8480,490,8320,490,8160,490C8000,490,7840,490,7680,490C7520,490,7360,490,7200,490C7040,490,6880,490,6720,490C6560,490,6400,490,6240,490C6080,490,5920,490,5760,490C5600,490,5440,490,5280,490C5120,490,4960,490,4800,490C4640,490,4480,490,4320,490C4160,490,4000,490,3840,490C3680,490,3520,490,3360,490C3200,490,3040,490,2880,490C2720,490,2560,490,2400,490C2240,490,2080,490,1920,490C1760,490,1600,490,1440,490C1280,490,1120,490,960,490C800,490,640,490,480,490C320,490,160,490,80,490L0,490Z"/></svg>